# xmcd
#
# Track frame offsets: 
#        150
#        11502
#        25190
#        40670
#        53295
#
# Disc length: 931 seconds
#
# Revision: 0
# Processed by: cddbd v1.4PL0 Copyright (c) Steve Scherf et al.
# Submitted via: ExactAudioCopy v0.90b4
#
DISCID=2903a105
DTITLE=Tracy Byrd - Crown Royal - Limited Edition
DYEAR=1900
DGENRE=Country
TTITLE0=Holdin' Heaven
TTITLE1=Watermelon Crawl
TTITLE2=Walking to Jerusalem
TTITLE3=Cowgirl
TTITLE4=Big Love
EXTD=
EXTT0=
EXTT1=
EXTT2=
EXTT3=
EXTT4=
PLAYORDER=
